<svg width="24" height="24" viewBox="0 0 24 24" fill="none" xmlns="http://www.w3.org/2000/svg">
<path d="M21.3765 6.69037L21.2046 6.51852L15.012 0.355556L14.8283 0.171852C14.7158 0.0592593 14.5676 0 14.4076 0H4.89649C3.55131 0 2.46094 1.09037 2.46094 2.43556V2.44148V21.5941C2.46094 22.9452 3.54538 24 4.89649 24H19.1069C20.458 24 21.5424 22.9393 21.5424 21.5941V7.11111C21.5424 6.95704 21.4832 6.80296 21.3765 6.69037ZM15.0832 6.15704V2.08L19.492 6.46519H15.3972C15.2313 6.47111 15.0891 6.34667 15.0832 6.18074C15.0832 6.17481 15.0832 6.16296 15.0832 6.15704ZM20.3572 21.6C20.3572 22.2933 19.8002 22.8207 19.1069 22.8207H4.89649C4.20316 22.8207 3.64612 22.2933 3.64612 21.6V2.44741C3.6402 1.76 4.19723 1.19704 4.88464 1.19111C4.89057 1.19111 4.89057 1.19111 4.89649 1.19111H13.898V6.15111C13.892 6.97481 14.5558 7.64444 15.3735 7.65037C15.3795 7.65037 15.3913 7.65037 15.3972 7.65037H20.3572V21.6Z" fill="black"/>
<path d="M14.3468 12.5754H13.5409C13.4698 12.2791 13.3512 11.9947 13.1794 11.7458H14.3646C14.6964 11.7399 14.9572 11.4732 14.9572 11.1473C14.9572 10.8214 14.6905 10.5547 14.3646 10.5547H9.62977C9.30384 10.5547 9.03718 10.8214 9.03718 11.1473C9.03718 11.4732 9.30384 11.7399 9.62977 11.7399H10.9809C11.5379 11.7458 12.0475 12.0658 12.2905 12.5695H9.62384C9.29792 12.5695 9.03125 12.8362 9.03125 13.1621C9.03125 13.488 9.29792 13.7547 9.62384 13.7547H12.2905C12.2253 13.9206 12.1246 14.0747 11.9942 14.1991C11.7275 14.4777 11.3601 14.6377 10.975 14.6436H9.62384C9.29792 14.6436 9.03125 14.9102 9.03125 15.2362C9.03125 15.4021 9.09644 15.5562 9.21495 15.6688L12.5987 18.8688C12.8357 19.0939 13.209 19.0821 13.4342 18.8451C13.6594 18.608 13.6475 18.2347 13.4105 18.0095L11.1053 15.8347C11.7572 15.7932 12.3735 15.5147 12.8238 15.0465C13.1735 14.691 13.4164 14.2465 13.5231 13.7606H14.3468C14.6727 13.7606 14.9394 13.4939 14.9394 13.168C14.9394 12.8421 14.6727 12.5754 14.3468 12.5754Z" fill="black"/>
</svg>
