<svg width="24" height="24" viewBox="0 0 24 24" fill="none" xmlns="http://www.w3.org/2000/svg">
<path d="M12.0015 22.854C12.4215 22.8443 12.8245 22.6864 13.1392 22.4083C13.454 22.1301 13.6603 21.7496 13.7215 21.334H10.2148C10.2778 21.7609 10.4937 22.1503 10.8224 22.4299C11.151 22.7095 11.5701 22.8602 12.0015 22.854Z" fill="#1C1C1E"/>
<path d="M21.6752 18.5536C21.0323 17.9805 20.4695 17.3235 20.0018 16.6003C19.4913 15.602 19.1853 14.5117 19.1018 13.3936V10.1003C19.0991 9.70023 19.0634 9.3011 18.9952 8.90693C18.4704 8.80204 17.9661 8.61293 17.5018 8.34693C17.6788 8.91682 17.7687 9.51018 17.7685 10.1069V13.4003C17.8502 14.7643 18.2254 16.0946 18.8685 17.3003C19.3288 18.0296 19.8749 18.7011 20.4952 19.3003H3.42182C4.0421 18.7011 4.58822 18.0296 5.04849 17.3003C5.69156 16.0946 6.06678 14.7643 6.14849 13.4003V10.1003C6.14498 9.32872 6.29369 8.56406 6.58612 7.85007C6.87854 7.13609 7.30893 6.48679 7.85263 5.93937C8.39634 5.39195 9.04269 4.95715 9.75467 4.65987C10.4666 4.36259 11.2303 4.20867 12.0018 4.20693C13.131 4.20783 14.2348 4.54176 15.1752 5.16693C15.0715 4.78625 15.0133 4.39463 15.0018 4.00026V3.58026C14.3057 3.23783 13.5579 3.01259 12.7885 2.91359V2.07359C12.7885 1.83755 12.6947 1.61118 12.5278 1.44427C12.3609 1.27736 12.1345 1.18359 11.8985 1.18359C11.6624 1.18359 11.4361 1.27736 11.2692 1.44427C11.1023 1.61118 11.0085 1.83755 11.0085 2.07359V2.94693C9.28563 3.18996 7.70887 4.04809 6.5693 5.36288C5.42973 6.67768 4.80431 8.36035 4.80849 10.1003V13.3936C4.72499 14.5117 4.41901 15.602 3.90849 16.6003C3.44908 17.3218 2.89529 17.9788 2.26182 18.5536C2.19071 18.6161 2.13372 18.693 2.09463 18.7792C2.05555 18.8654 2.03528 18.9589 2.03516 19.0536V19.9603C2.03516 20.1371 2.10539 20.3066 2.23042 20.4317C2.35544 20.5567 2.52501 20.6269 2.70182 20.6269H21.2352C21.412 20.6269 21.5815 20.5567 21.7066 20.4317C21.8316 20.3066 21.9018 20.1371 21.9018 19.9603V19.0536C21.9017 18.9589 21.8814 18.8654 21.8423 18.7792C21.8033 18.693 21.7463 18.6161 21.6752 18.5536Z" fill="#1C1C1E"/>
<path d="M20.0013 7.33268C21.8423 7.33268 23.3346 5.8403 23.3346 3.99935C23.3346 2.1584 21.8423 0.666016 20.0013 0.666016C18.1604 0.666016 16.668 2.1584 16.668 3.99935C16.668 5.8403 18.1604 7.33268 20.0013 7.33268Z" fill="#30D158"/>
</svg>
