<svg width="10" height="10" viewBox="0 0 10 10" fill="none" xmlns="http://www.w3.org/2000/svg">
<path d="M4.65889 0.220764C4.79048 -0.0744423 5.2095 -0.0744424 5.34109 0.220764L6.50991 2.84291C6.56418 2.96467 6.67924 3.04826 6.81181 3.06225L9.6668 3.36358C9.98822 3.39751 10.1177 3.79601 9.87761 4.01238L7.74499 5.93429C7.64596 6.02353 7.60201 6.15879 7.62967 6.28919L8.22533 9.09757C8.29239 9.41374 7.9534 9.66003 7.67343 9.49855L5.18657 8.06421C5.0711 7.99761 4.92888 7.99761 4.81341 8.06421L2.32655 9.49855C2.04657 9.66003 1.70758 9.41374 1.77464 9.09757L2.37031 6.28919C2.39797 6.15879 2.35402 6.02353 2.25499 5.93429L0.122368 4.01238C-0.117727 3.79601 0.0117555 3.39751 0.333176 3.36358L3.18817 3.06225C3.32074 3.04826 3.4358 2.96467 3.49007 2.84291L4.65889 0.220764Z" fill="white"/>
</svg>
