<svg width="16" height="16" viewBox="0 0 16 16" fill="none" xmlns="http://www.w3.org/2000/svg">
<path d="M6.20668 4.47319C6.14488 4.53486 6.09585 4.60812 6.06239 4.68877C6.02894 4.76942 6.01172 4.85587 6.01172 4.94319C6.01172 5.0305 6.02894 5.11695 6.06239 5.1976C6.09585 5.27825 6.14488 5.35151 6.20668 5.41319L8.79335 7.99985L6.20668 10.5865C6.08203 10.7112 6.012 10.8802 6.012 11.0565C6.012 11.2328 6.08203 11.4019 6.20668 11.5265C6.33133 11.6512 6.5004 11.7212 6.67668 11.7212C6.85297 11.7212 7.02203 11.6512 7.14668 11.5265L10.2067 8.46652C10.2685 8.40484 10.3175 8.33158 10.351 8.25093C10.3844 8.17029 10.4016 8.08383 10.4016 7.99652C10.4016 7.90921 10.3844 7.82275 10.351 7.7421C10.3175 7.66145 10.2685 7.58819 10.2067 7.52652L7.14668 4.46652C6.89335 4.21319 6.46668 4.21319 6.20668 4.47319Z" fill="#636366"/>
</svg>
