<svg width="24" height="24" viewBox="0 0 24 24" fill="none" xmlns="http://www.w3.org/2000/svg">
<g clip-path="url(#clip0_0_698)">
<path d="M23.2953 3.84448L20.1554 0.704589V0.704406C19.2161 -0.234741 17.6875 -0.234924 16.7484 0.704589L0.704498 16.7485C-0.234833 17.6878 -0.234833 19.2162 0.704498 20.1555L3.84439 23.2954C4.31405 23.7651 4.93093 24 5.548 24C6.16488 24 6.78176 23.7651 7.25143 23.2954L23.2955 7.25152C24.2346 6.31219 24.2346 4.78381 23.2953 3.84448ZM4.83847 22.3013L1.69858 19.1614C1.30728 18.7703 1.30728 18.1336 1.69858 17.7425L17.7424 1.69867C17.938 1.50293 18.1949 1.40515 18.4518 1.40515C18.7089 1.40515 18.9658 1.50311 19.1613 1.69867L22.3014 4.83856C22.6925 5.22967 22.6925 5.86633 22.3014 6.25744L22.0214 6.53723L20.9957 5.51147C20.7212 5.23699 20.2761 5.23699 20.0016 5.51147C19.7271 5.78594 19.7271 6.23107 20.0016 6.50555L21.0274 7.5313L19.6407 8.91796L17.3612 6.63848C17.0867 6.36401 16.6418 6.36401 16.3671 6.63848C16.0927 6.91296 16.0927 7.35809 16.3671 7.63256L18.6466 9.91204L17.2263 11.3326L16.2005 10.3066C15.926 10.0322 15.4809 10.0322 15.2063 10.3066C14.9318 10.5811 14.9318 11.0262 15.2063 11.3007L16.2322 12.3266L14.7868 13.7721L12.5073 11.4926C12.2328 11.2179 11.7877 11.2181 11.5132 11.4926C11.2387 11.7671 11.2387 12.212 11.5132 12.4867L13.7927 14.7662L12.3722 16.1865L11.3464 15.1608C11.0719 14.8863 10.6268 14.8863 10.3523 15.1608C10.0778 15.4352 10.0778 15.8804 10.3523 16.1548L11.3781 17.1806L9.96999 18.5889L7.69051 16.3094C7.41604 16.0349 6.97091 16.0349 6.69644 16.3094C6.42196 16.5838 6.42196 17.029 6.69644 17.3034L8.97591 19.5829L7.55538 21.0033L6.52963 19.9775C6.25515 19.703 5.81002 19.703 5.53555 19.9775C5.26107 20.252 5.26107 20.6971 5.53555 20.9716L6.5613 21.9974L6.25735 22.3015C5.86624 22.6926 5.22958 22.6926 4.83847 22.3013Z" fill="black"/>
</g>
<defs>
<clipPath id="clip0_0_698">
<rect width="24" height="24" fill="white"/>
</clipPath>
</defs>
</svg>
