<svg width="24" height="24" viewBox="0 0 24 24" fill="none" xmlns="http://www.w3.org/2000/svg">
<path fill-rule="evenodd" clip-rule="evenodd" d="M5.64483 5.64287C5.23225 6.05545 5.00046 6.61503 5.00046 7.19851V8.19851C5.00013 8.77941 4.77006 9.3366 4.36046 9.74851L3.66046 10.4485C3.45486 10.653 3.2917 10.896 3.18037 11.1637C3.06903 11.4315 3.01172 11.7186 3.01172 12.0085C3.01172 12.2985 3.06903 12.5855 3.18037 12.8533C3.2917 13.121 3.45486 13.3641 3.66046 13.5685L4.36046 14.2685C4.77006 14.6804 5.00013 15.2376 5.00046 15.8185V16.8185C5.00046 17.402 5.23225 17.9616 5.64483 18.3741C6.05741 18.7867 6.61698 19.0185 7.20046 19.0185H8.20046C8.78136 19.0188 9.33855 19.2489 9.75046 19.6585L10.4505 20.3585C10.6549 20.5641 10.898 20.7273 11.1657 20.8386C11.4334 20.9499 11.7205 21.0072 12.0105 21.0072C12.3004 21.0072 12.5875 20.9499 12.8552 20.8386C13.1229 20.7273 13.366 20.5641 13.5705 20.3585L14.2705 19.6585C14.6824 19.2489 15.2396 19.0188 15.8205 19.0185H16.8205C17.4039 19.0185 17.9635 18.7867 18.3761 18.3741C18.7887 17.9616 19.0205 17.402 19.0205 16.8185V15.8185C19.0208 15.2376 19.2509 14.6804 19.6605 14.2685L20.3605 13.5685C20.5661 13.3641 20.7292 13.121 20.8406 12.8533C20.9519 12.5855 21.0092 12.2985 21.0092 12.0085C21.0092 11.7186 20.9519 11.4315 20.8406 11.1637C20.7292 10.896 20.5661 10.653 20.3605 10.4485L19.6605 9.74851C19.2509 9.3366 19.0208 8.77941 19.0205 8.19851V7.19851C19.0205 6.61503 18.7887 6.05545 18.3761 5.64287C17.9635 5.23029 17.4039 4.99851 16.8205 4.99851H15.8205C15.2396 4.99818 14.6824 4.76811 14.2705 4.35851L13.5705 3.65851C13.366 3.45291 13.1229 3.28975 12.8552 3.17842C12.5875 3.06708 12.3004 3.00977 12.0105 3.00977C11.7205 3.00977 11.4334 3.06708 11.1657 3.17842C10.898 3.28975 10.6549 3.45291 10.4505 3.65851L9.75046 4.35851C9.33855 4.76811 8.78136 4.99818 8.20046 4.99851H7.20046C6.61698 4.99851 6.05741 5.23029 5.64483 5.64287ZM15.6543 9.65237C16.0148 9.29185 16.0148 8.70733 15.6543 8.3468C15.2938 7.98628 14.7093 7.98628 14.3488 8.3468L8.34876 14.3468C7.98823 14.7073 7.98823 15.2918 8.34876 15.6524C8.70928 16.0129 9.2938 16.0129 9.65432 15.6524L15.6543 9.65237ZM9.50264 10.9989C10.3311 10.9989 11.0026 10.3273 11.0026 9.49888C11.0026 8.67045 10.3311 7.99888 9.50264 7.99888C8.67421 7.99888 8.00264 8.67045 8.00264 9.49888C8.00264 10.3273 8.67421 10.9989 9.50264 10.9989ZM16.0008 14.4988C16.0008 15.3272 15.3292 15.9988 14.5008 15.9988C13.6723 15.9988 13.0008 15.3272 13.0008 14.4988C13.0008 13.6704 13.6723 12.9988 14.5008 12.9988C15.3292 12.9988 16.0008 13.6704 16.0008 14.4988Z" fill="black"/>
</svg>
