<svg width="84" height="24" viewBox="0 0 84 24" fill="none" xmlns="http://www.w3.org/2000/svg">
<path d="M0 6C0 2.68629 2.68629 0 6 0H78C81.3137 0 84 2.68629 84 6V18C84 21.3137 81.3137 24 78 24H6C2.68629 24 0 21.3137 0 18V6Z" fill="#FFD272"/>
<path d="M7.16114 13.9416L6.33781 13.1183C6.00198 12.7825 6.00198 12.23 6.33781 11.8941L7.16114 11.0708C7.30197 10.9299 7.41572 10.6537 7.41572 10.4587V9.2941C7.41572 8.81743 7.80573 8.42744 8.28239 8.42744H9.44697C9.64197 8.42744 9.91823 8.31371 10.0591 8.17288L10.8824 7.34953C11.2182 7.0137 11.7707 7.0137 12.1066 7.34953L12.9299 8.17288C13.0707 8.31371 13.347 8.42744 13.542 8.42744H14.7066C15.1832 8.42744 15.5732 8.81743 15.5732 9.2941V10.4587C15.5732 10.6537 15.687 10.9299 15.8278 11.0708L16.6512 11.8941C16.987 12.23 16.987 12.7825 16.6512 13.1183L15.8278 13.9416C15.687 14.0825 15.5732 14.3587 15.5732 14.5537V15.7183C15.5732 16.1949 15.1832 16.585 14.7066 16.585H13.542C13.347 16.585 13.0707 16.6987 12.9299 16.8395L12.1066 17.6629C11.7707 17.9987 11.2182 17.9987 10.8824 17.6629L10.0591 16.8395C9.91823 16.6987 9.64197 16.585 9.44697 16.585H8.28239C7.80573 16.585 7.41572 16.1949 7.41572 15.7183V14.5537C7.41572 14.3533 7.30197 14.0771 7.16114 13.9416Z" fill="#FBF9FC"/>
<path d="M9.875 14.125L13.125 10.875" stroke="#AE90C2" stroke-linecap="round"/>
<path d="M12.5859 13.584H12.5908" stroke="#AE90C2" stroke-linecap="round"/>
<path d="M23.0246 17.087H24.8576L28.5496 9.378V8.156H22.1016V9.638H26.6646L23.0246 17.087Z" fill="#231D27"/>
<path d="M33.8219 17.243C36.1099 17.243 37.7219 15.332 37.7219 12.615C37.7219 9.911 36.1099 8 33.8219 8C31.5209 8 29.8959 9.911 29.8959 12.615C29.8959 15.332 31.5209 17.243 33.8219 17.243ZM33.8219 15.761C32.4959 15.761 31.5599 14.461 31.5599 12.615C31.5599 10.769 32.4959 9.482 33.8219 9.482C35.1349 9.482 36.0709 10.769 36.0709 12.615C36.0709 14.461 35.1349 15.761 33.8219 15.761Z" fill="#231D27"/>
<path d="M41.0781 12.602C42.3651 12.602 43.2621 11.627 43.2621 10.34C43.2621 9.092 42.3911 8.078 41.0781 8.078C39.7911 8.078 38.9071 9.079 38.9071 10.353C38.9071 11.601 39.7781 12.602 41.0781 12.602ZM40.0511 17.087H41.2471L47.4221 8.156H46.2261L40.0511 17.087ZM41.0781 11.627C40.4801 11.627 40.0251 11.094 40.0251 10.353C40.0251 9.573 40.4671 9.053 41.0781 9.053C41.6761 9.053 41.998 9.733 41.998 10.5C41.998 11.254 41.6891 11.627 41.0781 11.627ZM46.3561 17.217C47.6431 17.217 48.5401 16.229 48.5401 14.942C48.5401 13.707 47.6821 12.68 46.3691 12.68C45.0691 12.68 44.1851 13.694 44.1851 14.955C44.1851 16.229 45.0821 17.217 46.3561 17.217ZM46.3691 16.242C45.7581 16.242 45.3161 15.709 45.3161 14.942C45.3161 14.201 45.7451 13.668 46.3561 13.668C46.9671 13.668 47.4221 14.201 47.4221 14.955C47.4221 15.722 46.9801 16.242 46.3691 16.242Z" fill="#231D27"/>
<path d="M58.0359 17.243C60.5709 17.243 62.7159 15.124 62.7159 12.615C62.7159 10.106 60.5709 8 58.0359 8C55.4879 8 53.3429 10.106 53.3429 12.615C53.3429 15.124 55.4879 17.243 58.0359 17.243ZM58.0359 15.761C56.3849 15.761 54.9939 14.331 54.9939 12.615C54.9939 10.912 56.3849 9.482 58.0359 9.482C59.6739 9.482 61.0519 10.912 61.0519 12.615C61.0519 14.331 59.6739 15.761 58.0359 15.761Z" fill="#231D27"/>
<path d="M70.9263 9.638V8.156H64.2053V17.087H65.8303V13.382H70.4453V11.9H65.8303V9.638H70.9263Z" fill="#231D27"/>
<path d="M79.064 9.638V8.156H72.343V17.087H73.968V13.382H78.583V11.9H73.968V9.638H79.064Z" fill="#231D27"/>
</svg>
