<svg width="18" height="18" viewBox="0 0 18 18" fill="none" xmlns="http://www.w3.org/2000/svg">
<mask id="mask0_0_340" style="mask-type:alpha" maskUnits="userSpaceOnUse" x="0" y="0" width="18" height="18">
<rect width="18" height="18" fill="#D9D9D9"/>
</mask>
<g mask="url(#mask0_0_340)">
<path d="M14.25 10.5V5.625L10.5 3L6.75 5.625V6.75H5.25V4.875L10.5 1.125L15.75 4.875V10.5H14.25ZM10.875 6H11.625V5.25H10.875V6ZM9.375 6H10.125V5.25H9.375V6ZM10.875 7.5H11.625V6.75H10.875V7.5ZM9.375 7.5H10.125V6.75H9.375V7.5ZM10.5 16.875L5.25 15.4125V16.5H0.75V8.25H6.7125L11.3625 9.975C11.775 10.125 12.1094 10.3875 12.3656 10.7625C12.6219 11.1375 12.75 11.55 12.75 12H14.25C14.875 12 15.4062 12.2063 15.8438 12.6187C16.2812 13.0312 16.5 13.575 16.5 14.25V15L10.5 16.875ZM2.25 15H3.75V9.75H2.25V15ZM10.4625 15.3L14.925 13.9125C14.8875 13.775 14.8031 13.6719 14.6719 13.6031C14.5406 13.5344 14.4 13.5 14.25 13.5H10.65C10.2625 13.5 9.9125 13.475 9.6 13.425C9.2875 13.375 8.95 13.2875 8.5875 13.1625L7.29375 12.7125L7.725 11.2875L9.225 11.775C9.45 11.85 9.7125 11.9062 10.0125 11.9438C10.3125 11.9812 10.725 12 11.25 12C11.25 11.8625 11.2094 11.7313 11.1281 11.6063C11.0469 11.4812 10.95 11.4 10.8375 11.3625L6.45 9.75H5.25V13.875L10.4625 15.3Z" fill="#6750A4"/>
</g>
</svg>
