<svg width="24" height="24" viewBox="0 0 24 24" fill="none" xmlns="http://www.w3.org/2000/svg">
<g clip-path="url(#clip0_0_710)">
<path d="M15.3988 11.8262C15.3988 11.59 15.3049 11.3634 15.1379 11.1964C14.9709 11.0294 14.7444 10.9355 14.5082 10.9355H9.08519C8.85719 10.9473 8.64239 11.0461 8.48515 11.2116C8.32791 11.3771 8.24023 11.5967 8.24023 11.825C8.24023 12.0533 8.32791 12.2729 8.48515 12.4384C8.64239 12.6039 8.85719 12.7027 9.08519 12.7145H14.5091C14.7447 12.7142 14.9707 12.6206 15.1374 12.4541C15.3042 12.2876 15.3982 12.0618 15.3988 11.8262Z" fill="black"/>
<path d="M9.08594 8.97656H17.0547C17.2909 8.97656 17.5174 8.88273 17.6845 8.7157C17.8515 8.54868 17.9453 8.32215 17.9453 8.08594C17.9453 7.84973 17.8515 7.6232 17.6845 7.45617C17.5174 7.28915 17.2909 7.19531 17.0547 7.19531H9.08594C8.84973 7.19531 8.62319 7.28915 8.45617 7.45617C8.28915 7.6232 8.19531 7.84973 8.19531 8.08594C8.19531 8.32215 8.28915 8.54868 8.45617 8.7157C8.62319 8.88273 8.84973 8.97656 9.08594 8.97656Z" fill="black"/>
<path d="M19.0415 15.7024C18.7273 15.6539 18.4074 15.6539 18.0932 15.7024C17.9983 15.7226 17.9112 15.7699 17.8426 15.8385C17.7739 15.9071 17.7267 15.9942 17.7065 16.0891C17.6577 16.4038 17.6577 16.7242 17.7065 17.0388C17.7267 17.1338 17.7739 17.2208 17.8426 17.2895C17.9112 17.3581 17.9983 17.4054 18.0932 17.4256C18.408 17.4743 18.7285 17.4743 19.0434 17.4256C19.1383 17.4053 19.2253 17.358 19.2939 17.2894C19.3626 17.2208 19.4098 17.1338 19.4301 17.0388C19.4782 16.7241 19.4782 16.4039 19.4301 16.0891C19.4097 15.994 19.3621 15.9068 19.2932 15.8381C19.2242 15.7695 19.1367 15.7223 19.0415 15.7024Z" fill="black"/>
<path d="M18.5762 18.0469C18.34 18.0469 18.1134 18.1407 17.9464 18.3077C17.7794 18.4748 17.6855 18.7013 17.6855 18.9375V20.5781C17.6973 20.8061 17.7961 21.0209 17.9616 21.1782C18.1271 21.3354 18.3467 21.4231 18.575 21.4231C18.8033 21.4231 19.0229 21.3354 19.1884 21.1782C19.3539 21.0209 19.4527 20.8061 19.4645 20.5781V18.9375C19.4645 18.7017 19.3709 18.4755 19.2044 18.3086C19.0379 18.1416 18.812 18.0475 18.5762 18.0469Z" fill="black"/>
<path d="M21.7253 14.148C21.7253 14.0669 21.7253 13.9914 21.7253 13.923C21.7389 12.5889 21.5598 8.03875 21.3859 7.16031C21.0869 5.62141 19.764 4.20438 18.2678 3.79094L18.1769 3.47312C17.7658 1.97641 16.4064 0.655469 14.9462 0.332031H14.935C14.0537 0.14875 11.7981 0.00390625 10.4429 0.00390625C9.08779 0.00390625 6.83639 0.146406 5.95326 0.329688H5.94154C4.37498 0.679375 2.95936 2.14656 2.64857 3.74547C2.47092 4.64266 2.29701 9.04937 2.3092 10.3862V10.5981C2.3092 12.3794 2.51639 18.5566 2.71795 19.5766C3.0817 21.4455 4.73592 23.1602 6.56639 23.5656L6.57811 23.568C7.6192 23.7845 10.4045 23.9622 12.0208 23.965C13.1144 23.9612 15.4989 23.8713 16.9342 23.7625C16.945 23.7625 16.9548 23.7597 16.9656 23.7583C18.1983 24.1388 19.5262 24.0681 20.7115 23.5589C21.8968 23.0498 22.8623 22.1354 23.435 20.9794C24.0077 19.8234 24.1502 18.5013 23.8371 17.2498C23.5241 15.9983 22.7758 14.8991 21.7262 14.1489L21.7253 14.148ZM12.0184 22.1861C10.3806 22.1833 7.77811 21.9986 6.94467 21.8275C5.80326 21.572 4.69092 20.4105 4.46311 19.2353C4.46311 19.2353 4.46311 19.232 4.46311 19.2306C4.30936 18.4609 4.08811 12.6077 4.08811 10.5967C4.08811 10.5255 4.08811 10.4561 4.08811 10.3961V10.3764C4.07264 8.97953 4.26576 4.73359 4.39326 4.09094C4.39348 4.08923 4.39348 4.08749 4.39326 4.08578C4.56764 3.18766 5.44936 2.26609 6.32029 2.07016C7.00232 1.92953 9.11686 1.78047 10.4415 1.77813C11.7662 1.77578 13.8854 1.93047 14.5665 2.07016C15.272 2.22859 15.9812 2.85203 16.3206 3.57016C14.8905 3.48297 13.1378 3.42016 12.2008 3.41875C10.9047 3.41875 8.35701 3.53781 7.02107 3.685C6.90038 3.69189 6.78234 3.72329 6.67417 3.77728C6.566 3.83126 6.46995 3.9067 6.39187 3.99901C6.3138 4.09131 6.25533 4.19854 6.22004 4.31417C6.18475 4.4298 6.17336 4.5514 6.18658 4.67158C6.19981 4.79175 6.23735 4.90797 6.29694 5.01316C6.35653 5.11835 6.43691 5.2103 6.53319 5.28343C6.62946 5.35655 6.73962 5.4093 6.85694 5.43848C6.97426 5.46765 7.09629 5.47264 7.21561 5.45312C8.48123 5.3125 10.9778 5.19953 12.2008 5.19766C13.3961 5.19766 15.9672 5.30406 17.3865 5.43203C17.5529 5.455 17.6542 5.47328 17.7119 5.48547C18.5828 5.68141 19.4645 6.60297 19.6389 7.50109C19.6387 7.5028 19.6387 7.50454 19.6389 7.50625C19.7528 8.07672 19.9164 11.5286 19.9417 13.3098C18.8198 13.0152 17.633 13.0875 16.5551 13.5163C15.4773 13.945 14.565 14.7075 13.9519 15.6922C13.3388 16.6769 13.0571 17.8321 13.148 18.9885C13.239 20.1449 13.6978 21.2418 14.4573 22.1186C13.5076 22.1584 12.5833 22.1842 12.0184 22.1861ZM18.5669 22.2208C17.8437 22.2208 17.1368 22.0063 16.5356 21.6046C15.9343 21.2028 15.4657 20.6318 15.1889 19.9637C14.9122 19.2956 14.8398 18.5605 14.9809 17.8512C15.1219 17.142 15.4702 16.4905 15.9815 15.9792C16.4928 15.4678 17.1443 15.1196 17.8536 14.9785C18.5628 14.8375 19.2979 14.9099 19.966 15.1866C20.6341 15.4633 21.2052 15.932 21.6069 16.5332C22.0087 17.1345 22.2231 17.8414 22.2231 18.5645C22.2225 19.534 21.8371 20.4637 21.1515 21.1492C20.466 21.8347 19.5364 22.2202 18.5669 22.2208Z" fill="black"/>
</g>
<defs>
<clipPath id="clip0_0_710">
<rect width="24" height="24" fill="white"/>
</clipPath>
</defs>
</svg>
