<svg width="12" height="14" viewBox="0 0 12 14" fill="none" xmlns="http://www.w3.org/2000/svg">
<path d="M6.58578 0.420764L7.92167 3.48884C8.02009 3.71112 8.20793 3.86549 8.42458 3.89979L11.4252 4.39924C11.6005 4.42737 11.7595 4.53303 11.8669 4.69425C11.9731 4.85342 12.0187 5.05512 11.9929 5.25339C11.9719 5.41805 11.9041 5.57035 11.8003 5.68698L9.62603 8.09575C9.467 8.26384 9.39498 8.51288 9.43339 8.75643L9.96871 12.1428C10.0257 12.5517 9.78867 12.9373 9.43339 13.0148C9.28696 13.0416 9.13693 13.0135 9.0049 12.9366L6.32833 11.3429C6.12968 11.2283 5.89503 11.2283 5.69639 11.3429L3.01982 12.9366C2.69094 13.1363 2.28346 13.0004 2.10042 12.6299C2.0326 12.4824 2.0086 12.3144 2.0308 12.1504L2.56612 8.76329C2.60453 8.52042 2.53191 8.27001 2.37348 8.10193L0.19921 5.69453C-0.0594455 5.40913 -0.0672472 4.93918 0.181806 4.64348C0.187207 4.63731 0.193209 4.63045 0.19921 4.62359C0.302432 4.50353 0.438061 4.42737 0.584493 4.40748L3.58514 3.90734C3.80118 3.87235 3.98902 3.71936 4.08804 3.4957L5.37592 0.420764C5.49055 0.157316 5.7282 -0.0066534 5.98625 0.000207227H6.06667C6.29052 0.0310801 6.48556 0.189561 6.58578 0.420764Z" fill="#FBF9FC"/>
</svg>
