<svg width="10" height="10" viewBox="0 0 10 10" fill="none" xmlns="http://www.w3.org/2000/svg">
<path d="M4.67142 0.212948C4.79835 -0.0718063 5.20253 -0.0718067 5.32946 0.212948L6.5081 2.85713C6.56045 2.97457 6.67144 3.05521 6.79931 3.0687L9.6783 3.37256C9.98834 3.40529 10.1132 3.78968 9.88164 3.99839L7.7311 5.93645C7.63558 6.02253 7.59319 6.153 7.61987 6.27878L8.22053 9.11076C8.28522 9.41574 7.95823 9.65331 7.68817 9.49755L5.18042 8.05115C5.06903 7.98691 4.93185 7.98691 4.82046 8.05115L2.31271 9.49755C2.04265 9.65331 1.71566 9.41574 1.78035 9.11076L2.38101 6.27879C2.40769 6.153 2.3653 6.02253 2.26978 5.93645L0.119239 3.9984C-0.112355 3.78968 0.0125427 3.40529 0.322584 3.37256L3.20157 3.0687C3.32944 3.05521 3.44043 2.97457 3.49278 2.85713L4.67142 0.212948Z" fill="#231D27"/>
</svg>
