<svg width="14" height="13" viewBox="0 0 14 13" fill="none" xmlns="http://www.w3.org/2000/svg">
<path d="M6.47469 0.220148C6.60591 -0.074236 7.02376 -0.0742351 7.15498 0.220149L8.8516 4.02637C8.90573 4.14779 9.02046 4.23115 9.15266 4.2451L13.2969 4.6825C13.6174 4.71633 13.7465 5.11372 13.5071 5.32949L10.4115 8.11926C10.3127 8.20826 10.2689 8.34314 10.2965 8.47318L11.1611 12.5497C11.228 12.865 10.8899 13.1106 10.6107 12.9496L7.0009 10.8675C6.88575 10.8011 6.74392 10.8011 6.62877 10.8675L3.01893 12.9496C2.73974 13.1106 2.40169 12.865 2.46857 12.5497L3.33321 8.47318C3.36079 8.34314 3.31697 8.20826 3.21822 8.11926L0.122571 5.32949C-0.116856 5.11372 0.0122674 4.71633 0.332793 4.6825L4.47701 4.2451C4.60921 4.23115 4.72394 4.14779 4.77807 4.02637L6.47469 0.220148Z" fill="#231D27"/>
</svg>
